<svg width="76" height="76" viewBox="0 0 76 76" fill="none" xmlns="http://www.w3.org/2000/svg">
<rect width="76" height="76" rx="38" fill="#886F61"/>
<g clip-path="url(#clip0_134_390)">
<path d="M43.9532 36.6066L42.0532 53.7066" stroke="white" stroke-width="2.28" stroke-linecap="round" stroke-linejoin="round"/>
<path d="M51.5533 36.6068L43.9533 23.3068" stroke="white" stroke-width="2.28" stroke-linecap="round" stroke-linejoin="round"/>
<path d="M19.2532 36.6066H57.2532" stroke="white" stroke-width="2.28" stroke-linecap="round" stroke-linejoin="round"/>
<path d="M22.1032 36.6066L25.1432 50.6666C25.3209 51.5378 25.7985 52.3192 26.4928 52.8746C27.1871 53.4301 28.0542 53.7245 28.9432 53.7066H47.5632C48.4522 53.7245 49.3194 53.4301 50.0137 52.8746C50.708 52.3192 51.1856 51.5378 51.3632 50.6666L54.5932 36.6066" stroke="white" stroke-width="2.28" stroke-linecap="round" stroke-linejoin="round"/>
<path d="M24.0033 45.1566H52.5033" stroke="white" stroke-width="2.28" stroke-linecap="round" stroke-linejoin="round"/>
<path d="M24.9532 36.6068L32.5532 23.3068" stroke="white" stroke-width="2.28" stroke-linecap="round" stroke-linejoin="round"/>
<path d="M32.5533 36.6066L34.4533 53.7066" stroke="white" stroke-width="2.28" stroke-linecap="round" stroke-linejoin="round"/>
</g>
<defs>
<clipPath id="clip0_134_390">
<rect width="41.04" height="34.2" fill="white" transform="translate(17.7333 20.2667)"/>
</clipPath>
</defs>
</svg>
